<?xml version="1.0" encoding="utf-8"?>
<!-- Generator: Adobe Illustrator 23.0.2, SVG Export Plug-In . SVG Version: 6.00 Build 0)  -->
<svg version="1.1" id="Layer_1" xmlns="http://www.w3.org/2000/svg" xmlns:xlink="http://www.w3.org/1999/xlink" x="0px" y="0px"
	 viewBox="0 0 85 53" style="enable-background:new 0 0 85 53;" xml:space="preserve">
<style type="text/css">
	.st0{fill-rule:evenodd;clip-rule:evenodd;fill:#272727;stroke:#48FFA4;stroke-width:4;}
	.st1{fill:#48FFA4;}
	.st2{fill:#272727;}
</style>
<title>esc</title>
<desc>Created with Sketch.</desc>
<g id="Page-1">
	<g id="Desktop-HD-Copy-18" transform="translate(-263.000000, -1082.000000)">
		<g transform="translate(263.000000, 1082.000000)">
			<g id="Group-11">
				<g id="Group-10-Copy">
					<path id="Rectangle-Copy-2" class="st0" d="M10,2h65c4.4,0,8,3.6,8,8v33c0,4.4-3.6,8-8,8H10c-4.4,0-8-3.6-8-8V10
						C2,5.6,5.6,2,10,2z"/>
				</g>
				<path class="st1" d="M17.5,26.3c0-5.1,2.9-8.2,7.5-8.2c4.6,0,7.5,3,7.5,7.9v1.3H21.9v0.3c0,2,1.3,3.3,3.7,3.3
					c1.8,0,3.1-0.8,4.1-1.9l2.4,2.6c-1.2,1.5-3.3,2.7-6.6,2.7C20.2,34.4,17.5,31.3,17.5,26.3z"/>
				<path class="st2" d="M21.9,24.6v0.2h6.2v-0.2c0-2-1.2-3.3-3.1-3.3S21.9,22.6,21.9,24.6z"/>
				<path class="st1" d="M35.5,31.5l2.5-2.3c1.2,1.3,2.8,2.1,4.9,2.1c1.7,0,2.8-0.5,2.8-1.7c0-0.9-0.7-1.1-1.9-1.3l-2.5-0.4
					c-2.8-0.4-4.9-1.6-4.9-4.5c0-3.2,2.6-5.2,7.1-5.2c3,0,5.2,0.9,6.5,2.4l-2.2,2.5c-0.9-1-2.4-1.8-4.4-1.8c-1.7,0-2.6,0.5-2.6,1.6
					c0,0.9,0.7,1.2,1.9,1.3l2.5,0.4c2.8,0.4,5,1.6,5,4.5c0,3.2-2.6,5.2-7.2,5.2C39.4,34.4,36.7,33.2,35.5,31.5z"/>
				<path class="st1" d="M53.8,26.3c0-5,3-8.1,7.8-8.1c3.4,0,5.4,1.5,6.4,3.8l-3.4,1.9c-0.5-1.2-1.4-2.1-3-2.1c-2,0-3.2,1.3-3.2,3.3
					v2.5c0,2,1.1,3.3,3.2,3.3c1.7,0,2.6-0.9,3.3-2.2l3.4,1.9c-1.1,2.2-3.2,3.8-6.7,3.8C56.7,34.4,53.8,31.3,53.8,26.3z"/>
			</g>
		</g>
	</g>
</g>
</svg>
