<?xml version="1.0" encoding="utf-8"?>
<!-- Generator: Adobe Illustrator 23.0.2, SVG Export Plug-In . SVG Version: 6.00 Build 0)  -->
<svg version="1.1" id="Layer_1" xmlns="http://www.w3.org/2000/svg" xmlns:xlink="http://www.w3.org/1999/xlink" x="0px" y="0px"
	 viewBox="0 0 238 267.7" style="enable-background:new 0 0 238 267.7;" xml:space="preserve">
<style type="text/css">
	.st0{fill:#FFFFFF;}
</style>
<g>
	<path class="st0" d="M60,222C23,201,0,162,0,119C0,53,53,0,119,0s119,53,119,119c0,43-23,82-59,103c18,6,36,15,54,27
		c11,7,0,24-11,16c-33-22-67-33-102-33c-34-1-69,11-105,34c-11,7-21-10-10-17C23,237,41,228,60,222z M147,214c42-12,71-51,71-95
		c0-55-45-99-99-99c-55,0-99,44-99,99c0,44,29,83,72,95c9-2,19-2,28-2S138,212,147,214z"/>
	<path class="st0" d="M119,55c35,0,64,29,64,64s-29,64-64,64s-64-29-64-64S84,55,119,55z M119,75c-24,0-44,20-44,44s20,44,44,44
		s44-20,44-44S143,75,119,75z"/>
</g>
</svg>
